<?xml version="1.0" encoding="utf-8"?>
<!-- Generator: Adobe Illustrator 23.0.1, SVG Export Plug-In . SVG Version: 6.00 Build 0)  -->
<svg version="1.1" xmlns="http://www.w3.org/2000/svg" xmlns:xlink="http://www.w3.org/1999/xlink" x="0px" y="0px"
	 viewBox="0 0 512 346" style="enable-background:new 0 0 512 346;" xml:space="preserve">
<style type="text/css">
	.st0{fill:#153049;}
	.st1{fill:#CC7979;}
	.st2{fill:#76CC7A;}
	.st3{fill:#4AC3ED;}
	.st4{fill:#FFFFFF;}
	.st5{font-family:'CenturyGothic-Bold';}
	.st6{font-size:104.0298px;}
</style>
<g id="Layer_2">
</g>
<g id="OutlineExpandedColored">
	<g>
		
			<rect x="358.8" y="90.7" transform="matrix(0.7071 0.7071 -0.7071 0.7071 192.1634 -220.9442)" class="st0" width="8" height="61.7"/>
		<g>
			<circle class="st1" cx="396.9" cy="262.1" r="28.7"/>
			<polygon class="st0" points="412.1,252.7 406.3,246.9 396.9,256.4 387.5,246.9 381.7,252.7 391.2,262.1 381.7,271.5 387.5,277.3 
				396.9,267.8 406.3,277.3 412.1,271.5 402.6,262.1 			"/>
			<path class="st0" d="M396.9,230.2c-17.6,0-31.9,14.3-31.9,31.9c0,17.6,14.3,31.9,31.9,31.9c17.6,0,31.9-14.3,31.9-31.9
				C428.8,244.5,414.5,230.2,396.9,230.2z M396.9,285.4c-12.9,0-23.3-10.5-23.3-23.3c0-12.9,10.5-23.3,23.3-23.3
				s23.3,10.5,23.3,23.3C420.3,275,409.8,285.4,396.9,285.4z"/>
		</g>
		
			<rect x="353.7" y="191.9" transform="matrix(0.7071 -0.7071 0.7071 0.7071 -52.7365 318.2236)" class="st0" width="8" height="61.7"/>
		<g>
			<g>
				<circle class="st2" cx="396.9" cy="84" r="28.7"/>
				<path class="st0" d="M408.4,70.2l-17.6,17.6l-5.3-5.3l-5.8,5.8l8.2,8.2c0.8,0.8,1.9,1.2,2.9,1.2s2.1-0.4,2.9-1.2L414.2,76
					L408.4,70.2z"/>
			</g>
			<path class="st0" d="M396.9,52C379.3,52,365,66.3,365,84c0,17.6,14.3,31.9,31.9,31.9c17.6,0,31.9-14.3,31.9-31.9
				C428.8,66.3,414.5,52,396.9,52z M396.9,107.3c-12.9,0-23.3-10.5-23.3-23.3c0-12.9,10.5-23.3,23.3-23.3s23.3,10.5,23.3,23.3
				C420.3,96.8,409.8,107.3,396.9,107.3z"/>
		</g>
		<g>
			<g>
				<g>
					<circle class="st2" cx="467.8" cy="173" r="28.7"/>
					<path class="st0" d="M479.2,159.3l-17.6,17.6l-5.3-5.3l-5.8,5.8l8.2,8.2c0.8,0.8,1.9,1.2,2.9,1.2s2.1-0.4,2.9-1.2l20.5-20.5
						L479.2,159.3z"/>
				</g>
				<path class="st0" d="M467.8,141.1c-17.6,0-31.9,14.3-31.9,31.9c0,17.6,14.3,31.9,31.9,31.9c17.6,0,31.9-14.3,31.9-31.9
					C499.7,155.4,485.4,141.1,467.8,141.1z M467.8,196.4c-12.9,0-23.3-10.5-23.3-23.3c0-12.9,10.5-23.3,23.3-23.3
					s23.3,10.5,23.3,23.3C491.1,185.9,480.6,196.4,467.8,196.4z"/>
			</g>
			<g>
				
					<rect x="397.7" y="135.7" transform="matrix(-1.836970e-16 1 -1 -1.836970e-16 574.7454 -228.7028)" class="st0" width="8" height="74.6"/>
			</g>
			<circle class="st3" cx="329.6" cy="173" r="36.9"/>
		</g>
		<circle class="st4" cx="329.6" cy="173" r="23.9"/>
		<text transform="matrix(1 0 0 1 12.316 200.2052)" class="st5 st6">Sprint</text>
	</g>
</g>
</svg>
