<svg xmlns="http://www.w3.org/2000/svg" viewBox="0 0 487.37 242"><defs><style>.cls-1{fill:#2b2b2b;}.cls-2{fill:#929292;}.cls-3{fill:#a9a9a9;}.cls-4{fill:#a3a3a3;}.cls-5{fill:#fff;}.cls-6{font-size:104.03px;font-family:CenturyGothic-Bold, Century Gothic;font-weight:700;}</style></defs><title>sprinto</title><g id="OutlineExpandedColored"><rect class="cls-1" x="358.77" y="90.66" width="8.03" height="61.66" transform="translate(179.85 -272.96) rotate(45)"/><circle class="cls-2" cx="384.59" cy="210.07" r="28.72"/><polygon class="cls-1" points="399.75 200.65 394.01 194.91 384.59 204.33 375.17 194.91 369.43 200.65 378.85 210.07 369.43 219.49 375.17 225.23 384.59 215.81 394.01 225.23 399.75 219.49 390.33 210.07 399.75 200.65"/><path class="cls-1" d="M396.91,230.16a31.93,31.93,0,1,0,31.93,31.93A31.92,31.92,0,0,0,396.91,230.16Zm0,55.28a23.35,23.35,0,1,1,23.35-23.35A23.34,23.34,0,0,1,396.91,285.44Z" transform="translate(-12.32 -52.02)"/><rect class="cls-1" x="353.74" y="191.94" width="8.03" height="61.66" transform="translate(-65.05 266.2) rotate(-45)"/><circle class="cls-3" cx="384.59" cy="31.93" r="28.72"/><path class="cls-1" d="M408.37,70.19,390.75,87.81l-5.3-5.31-5.81,5.8,8.21,8.21a4.1,4.1,0,0,0,5.8,0L414.17,76Z" transform="translate(-12.32 -52.02)"/><path class="cls-1" d="M396.91,52A31.93,31.93,0,1,0,428.84,84,31.93,31.93,0,0,0,396.91,52Zm0,55.28A23.35,23.35,0,1,1,420.26,84,23.34,23.34,0,0,1,396.91,107.3Z" transform="translate(-12.32 -52.02)"/><circle class="cls-3" cx="455.44" cy="121" r="28.72"/><path class="cls-1" d="M479.21,159.26,461.6,176.88l-5.31-5.31-5.8,5.8,8.21,8.21a4.1,4.1,0,0,0,5.8,0L485,165.06Z" transform="translate(-12.32 -52.02)"/><path class="cls-1" d="M467.75,141.09A31.93,31.93,0,1,0,499.68,173,31.94,31.94,0,0,0,467.75,141.09Zm0,55.28A23.35,23.35,0,1,1,491.1,173,23.35,23.35,0,0,1,467.75,196.37Z" transform="translate(-12.32 -52.02)"/><rect class="cls-1" x="397.71" y="135.72" width="8.03" height="74.61" transform="translate(562.43 -280.72) rotate(90)"/><circle class="cls-4" cx="317.26" cy="121" r="36.93"/><circle class="cls-5" cx="317.26" cy="121" r="23.86"/><text class="cls-6" transform="translate(0 148.19)">Sprint</text></g></svg>